<svg width="266" height="48" viewBox="0 0 266 48" fill="none" xmlns="http://www.w3.org/2000/svg">
<path d="M36 33.5625C36 35.4167 35.6458 37.1562 34.9375 38.7812C34.2292 40.4062 33.2604 41.8333 32.0312 43.0625C30.8229 44.2708 29.4062 45.2292 27.7812 45.9375C26.1562 46.6458 24.4167 47 22.5625 47H0.15625V2.1875H22.5625C24.4167 2.1875 26.1562 2.54167 27.7812 3.25C29.4062 3.95833 30.8229 4.92708 32.0312 6.15625C33.2604 7.36458 34.2292 8.78125 34.9375 10.4062C35.6458 12.0312 36 13.7708 36 15.625C36 16.4583 35.8854 17.3125 35.6562 18.1875C35.4271 19.0625 35.1042 19.9062 34.6875 20.7188C34.2708 21.5312 33.7708 22.2708 33.1875 22.9375C32.6042 23.6042 31.9583 24.1562 31.25 24.5938C31.9792 24.9896 32.6354 25.5312 33.2188 26.2188C33.8021 26.8854 34.3021 27.625 34.7188 28.4375C35.1354 29.25 35.4479 30.1042 35.6562 31C35.8854 31.875 36 32.7292 36 33.5625ZM9.125 38.0312H22.5625C23.1875 38.0312 23.7708 37.9167 24.3125 37.6875C24.8542 37.4583 25.3229 37.1458 25.7188 36.75C26.1354 36.3333 26.4583 35.8542 26.6875 35.3125C26.9167 34.7708 27.0312 34.1875 27.0312 33.5625C27.0312 32.9375 26.9167 32.3542 26.6875 31.8125C26.4583 31.2708 26.1354 30.8021 25.7188 30.4062C25.3229 29.9896 24.8542 29.6667 24.3125 29.4375C23.7708 29.2083 23.1875 29.0938 22.5625 29.0938H9.125V38.0312ZM9.125 20.125H22.5625C23.1875 20.125 23.7708 20.0104 24.3125 19.7812C24.8542 19.5521 25.3229 19.2396 25.7188 18.8438C26.1354 18.4271 26.4583 17.9479 26.6875 17.4062C26.9167 16.8438 27.0312 16.25 27.0312 15.625C27.0312 15 26.9167 14.4167 26.6875 13.875C26.4583 13.3333 26.1354 12.8646 25.7188 12.4688C25.3229 12.0521 24.8542 11.7292 24.3125 11.5C23.7708 11.2708 23.1875 11.1562 22.5625 11.1562H9.125V20.125ZM74.2812 47H72.2188L68.9062 42.4062C68.0938 43.1354 67.2292 43.8229 66.3125 44.4688C65.4167 45.0938 64.4688 45.6458 63.4688 46.125C62.4688 46.5833 61.4375 46.9479 60.375 47.2188C59.3333 47.4896 58.2708 47.625 57.1875 47.625C54.8333 47.625 52.6146 47.2292 50.5312 46.4375C48.4688 45.6458 46.6562 44.5 45.0938 43C43.5521 41.4792 42.3333 39.625 41.4375 37.4375C40.5417 35.25 40.0938 32.7604 40.0938 29.9688C40.0938 27.3646 40.5417 24.9792 41.4375 22.8125C42.3333 20.625 43.5521 18.75 45.0938 17.1875C46.6562 15.625 48.4688 14.4167 50.5312 13.5625C52.6146 12.6875 54.8333 12.25 57.1875 12.25C58.2708 12.25 59.3438 12.3854 60.4062 12.6562C61.4688 12.9271 62.5 13.3021 63.5 13.7812C64.5 14.2604 65.4479 14.8229 66.3438 15.4688C67.2604 16.1146 68.1146 16.8125 68.9062 17.5625L72.2188 13.5938H74.2812V47ZM65.6875 29.9688C65.6875 28.8021 65.4583 27.6771 65 26.5938C64.5625 25.4896 63.9583 24.5208 63.1875 23.6875C62.4167 22.8333 61.5104 22.1562 60.4688 21.6562C59.4479 21.1354 58.3542 20.875 57.1875 20.875C56.0208 20.875 54.9167 21.0729 53.875 21.4688C52.8542 21.8646 51.9583 22.4479 51.1875 23.2188C50.4375 23.9896 49.8438 24.9479 49.4062 26.0938C48.9688 27.2188 48.75 28.5104 48.75 29.9688C48.75 31.4271 48.9688 32.7292 49.4062 33.875C49.8438 35 50.4375 35.9479 51.1875 36.7188C51.9583 37.4896 52.8542 38.0729 53.875 38.4688C54.9167 38.8646 56.0208 39.0625 57.1875 39.0625C58.3542 39.0625 59.4479 38.8125 60.4688 38.3125C61.5104 37.7917 62.4167 37.1146 63.1875 36.2812C63.9583 35.4271 64.5625 34.4583 65 33.375C65.4583 32.2708 65.6875 31.1354 65.6875 29.9688ZM89.4062 47H80.8125V0.21875H89.4062V47ZM104.531 47H95.9375V0.21875H104.531V47ZM124.375 38.8125C124.708 38.9167 125.042 38.9896 125.375 39.0312C125.708 39.0521 126.042 39.0625 126.375 39.0625C127.208 39.0625 128.01 38.9479 128.781 38.7188C129.552 38.4896 130.271 38.1667 130.938 37.75C131.625 37.3125 132.229 36.7917 132.75 36.1875C133.292 35.5625 133.729 34.875 134.062 34.125L140.312 40.4062C139.521 41.5312 138.604 42.5417 137.562 43.4375C136.542 44.3333 135.427 45.0938 134.219 45.7188C133.031 46.3438 131.771 46.8125 130.438 47.125C129.125 47.4583 127.771 47.625 126.375 47.625C124.021 47.625 121.802 47.1875 119.719 46.3125C117.656 45.4375 115.844 44.2188 114.281 42.6562C112.74 41.0938 111.521 39.2396 110.625 37.0938C109.729 34.9271 109.281 32.5521 109.281 29.9688C109.281 27.3229 109.729 24.9062 110.625 22.7188C111.521 20.5312 112.74 18.6667 114.281 17.125C115.844 15.5833 117.656 14.3854 119.719 13.5312C121.802 12.6771 124.021 12.25 126.375 12.25C127.771 12.25 129.135 12.4167 130.469 12.75C131.802 13.0833 133.062 13.5625 134.25 14.1875C135.458 14.8125 136.583 15.5833 137.625 16.5C138.667 17.3958 139.583 18.4062 140.375 19.5312L124.375 38.8125ZM128.75 21.2188C128.354 21.0729 127.958 20.9792 127.562 20.9375C127.188 20.8958 126.792 20.875 126.375 20.875C125.208 20.875 124.104 21.0938 123.062 21.5312C122.042 21.9479 121.146 22.5521 120.375 23.3438C119.625 24.1354 119.031 25.0938 118.594 26.2188C118.156 27.3229 117.938 28.5729 117.938 29.9688C117.938 30.2812 117.948 30.6354 117.969 31.0312C118.01 31.4271 118.062 31.8333 118.125 32.25C118.208 32.6458 118.302 33.0312 118.406 33.4062C118.51 33.7812 118.646 34.1146 118.812 34.4062L128.75 21.2188ZM199.375 33.5625C199.375 35.4167 199.021 37.1562 198.312 38.7812C197.604 40.4062 196.635 41.8333 195.406 43.0625C194.198 44.2708 192.781 45.2292 191.156 45.9375C189.531 46.6458 187.792 47 185.938 47H163.531V2.1875H185.938C187.792 2.1875 189.531 2.54167 191.156 3.25C192.781 3.95833 194.198 4.92708 195.406 6.15625C196.635 7.36458 197.604 8.78125 198.312 10.4062C199.021 12.0312 199.375 13.7708 199.375 15.625C199.375 16.4583 199.26 17.3125 199.031 18.1875C198.802 19.0625 198.479 19.9062 198.062 20.7188C197.646 21.5312 197.146 22.2708 196.562 22.9375C195.979 23.6042 195.333 24.1562 194.625 24.5938C195.354 24.9896 196.01 25.5312 196.594 26.2188C197.177 26.8854 197.677 27.625 198.094 28.4375C198.51 29.25 198.823 30.1042 199.031 31C199.26 31.875 199.375 32.7292 199.375 33.5625ZM172.5 38.0312H185.938C186.562 38.0312 187.146 37.9167 187.688 37.6875C188.229 37.4583 188.698 37.1458 189.094 36.75C189.51 36.3333 189.833 35.8542 190.062 35.3125C190.292 34.7708 190.406 34.1875 190.406 33.5625C190.406 32.9375 190.292 32.3542 190.062 31.8125C189.833 31.2708 189.51 30.8021 189.094 30.4062C188.698 29.9896 188.229 29.6667 187.688 29.4375C187.146 29.2083 186.562 29.0938 185.938 29.0938H172.5V38.0312ZM172.5 20.125H185.938C186.562 20.125 187.146 20.0104 187.688 19.7812C188.229 19.5521 188.698 19.2396 189.094 18.8438C189.51 18.4271 189.833 17.9479 190.062 17.4062C190.292 16.8438 190.406 16.25 190.406 15.625C190.406 15 190.292 14.4167 190.062 13.875C189.833 13.3333 189.51 12.8646 189.094 12.4688C188.698 12.0521 188.229 11.7292 187.688 11.5C187.146 11.2708 186.562 11.1562 185.938 11.1562H172.5V20.125ZM237.594 29.9688C237.594 32.4688 237.146 34.8021 236.25 36.9688C235.354 39.1146 234.135 40.9792 232.594 42.5625C231.052 44.125 229.24 45.3646 227.156 46.2812C225.094 47.1771 222.875 47.625 220.5 47.625C218.146 47.625 215.927 47.1771 213.844 46.2812C211.781 45.3646 209.969 44.125 208.406 42.5625C206.865 40.9792 205.646 39.1146 204.75 36.9688C203.854 34.8021 203.406 32.4688 203.406 29.9688C203.406 27.4271 203.854 25.0729 204.75 22.9062C205.646 20.7396 206.865 18.875 208.406 17.3125C209.969 15.7292 211.781 14.4896 213.844 13.5938C215.927 12.6979 218.146 12.25 220.5 12.25C222.875 12.25 225.094 12.6771 227.156 13.5312C229.24 14.3646 231.052 15.5625 232.594 17.125C234.135 18.6667 235.354 20.5312 236.25 22.7188C237.146 24.8854 237.594 27.3021 237.594 29.9688ZM229 29.9688C229 28.5938 228.771 27.3542 228.312 26.25C227.875 25.125 227.271 24.1667 226.5 23.375C225.729 22.5625 224.823 21.9479 223.781 21.5312C222.76 21.0938 221.667 20.875 220.5 20.875C219.333 20.875 218.229 21.0938 217.188 21.5312C216.167 21.9479 215.271 22.5625 214.5 23.375C213.75 24.1667 213.156 25.125 212.719 26.25C212.281 27.3542 212.062 28.5938 212.062 29.9688C212.062 31.2604 212.281 32.4583 212.719 33.5625C213.156 34.6667 213.75 35.625 214.5 36.4375C215.271 37.25 216.167 37.8958 217.188 38.375C218.229 38.8333 219.333 39.0625 220.5 39.0625C221.667 39.0625 222.76 38.8438 223.781 38.4062C224.823 37.9688 225.729 37.3542 226.5 36.5625C227.271 35.7708 227.875 34.8125 228.312 33.6875C228.771 32.5625 229 31.3229 229 29.9688ZM258.844 47C256.781 47 254.844 46.6146 253.031 45.8438C251.219 45.0521 249.625 43.9792 248.25 42.625C246.896 41.25 245.823 39.6562 245.031 37.8438C244.26 36.0312 243.875 34.0938 243.875 32.0312V22.0938H239.719V13.5938H243.875V0.21875H252.375V13.5938H265.312V22.0938H252.375V32.0312C252.375 32.9271 252.542 33.7708 252.875 34.5625C253.208 35.3333 253.667 36.0104 254.25 36.5938C254.833 37.1771 255.521 37.6458 256.312 38C257.104 38.3333 257.948 38.5 258.844 38.5H265.312V47H258.844Z" fill="#FFF2E7"/>
</svg>
